<?xml version="1.0" encoding="UTF-8" standalone="no"?>
<!DOCTYPE svg PUBLIC "-//W3C//DTD SVG 1.1//EN" "http://www.w3.org/Graphics/SVG/1.1/DTD/svg11.dtd">
<svg width="100%" height="100%" viewBox="0 0 256 256" version="1.1" xmlns="http://www.w3.org/2000/svg" xmlns:xlink="http://www.w3.org/1999/xlink" xml:space="preserve" xmlns:serif="http://www.serif.com/" style="fill-rule:evenodd;clip-rule:evenodd;stroke-linejoin:round;stroke-miterlimit:2;">
    <rect id="nerdfont-favicon" x="0" y="0" width="256" height="256" style="fill:none;"/>
    <g id="nerdfont-favicon1" serif:id="nerdfont-favicon">
        <path d="M256,51.2C256,22.942 233.058,0 204.8,0L51.2,0C22.942,0 0,22.942 0,51.2L0,204.8C0,233.058 22.942,256 51.2,256L204.8,256C233.058,256 256,233.058 256,204.8L256,51.2Z" style="fill:rgb(79,77,100);"/>
        <g transform="matrix(2.76356,0,0,2.81088,-49.2823,-54.0046)">
            <path d="M29.65,55C28.65,55 27.9,55.325 27.4,55.975C26.9,56.625 26.7,57.45 26.8,58.45L28.6,69.7C28.8,71 29.375,72.075 30.325,72.925C31.275,73.775 32.3,74.2 33.4,74.2L44.95,74.2C46.25,74.2 47.475,73.775 48.625,72.925C49.775,72.075 50.5,71 50.8,69.7L54.7,57.55C54.9,56.95 54.825,56.375 54.475,55.825C54.125,55.275 53.5,55 52.6,55L29.65,55ZM44.95,82L33.4,82C30.3,82 27.55,80.925 25.15,78.775C22.75,76.625 21.4,74.05 21.1,71.05L19.3,59.5C18.8,56.2 19.6,53.375 21.7,51.025C23.8,48.675 26.45,47.5 29.65,47.5L52.6,47.5C56,47.5 58.65,48.7 60.55,51.1C61.05,51.7 61.4,52.35 61.6,53.05C63.3,52.75 65,52.75 66.7,53.05C66.9,52.35 67.25,51.7 67.75,51.1C69.65,48.7 72.3,47.5 75.7,47.5L98.65,47.5C101.85,47.5 104.5,48.675 106.6,51.025C108.7,53.375 109.5,56.15 109,59.35L107.2,71.2C106.9,74.2 105.525,76.75 103.075,78.85C100.625,80.95 97.9,82 94.9,82L83.35,82C80.35,82 77.575,80.975 75.025,78.925C72.475,76.875 70.8,74.45 70,71.65L66.7,61.15C65.9,60.65 65.025,60.425 64.075,60.475C63.125,60.525 62.3,60.75 61.6,61.15L58.3,71.95C57.5,74.75 55.825,77.125 53.275,79.075C50.725,81.025 47.95,82 44.95,82ZM75.7,55C74.8,55 74.175,55.275 73.825,55.825C73.475,56.375 73.4,57 73.6,57.7L77.5,69.4C77.9,70.7 78.65,71.825 79.75,72.775C80.85,73.725 82.05,74.2 83.35,74.2L94.9,74.2C96,74.2 97.025,73.8 97.975,73C98.925,72.2 99.45,71.2 99.55,70L101.5,58.3C101.6,57.4 101.4,56.625 100.9,55.975C100.4,55.325 99.65,55 98.65,55L75.7,55Z" style="fill:white;fill-rule:nonzero;"/>
        </g>
    </g>
</svg>
